# xmcd
#
# Track frame offsets:
#	150
#	13812
#	25917
#	59255
#	75560
#	87287
#	96665
#	117592
#	129882
#	141445
#	153292
#	166330
#	180815
#	194385
#	205867
#	217257
#	226502
#	244112
#	254537
#	266685
#	281312
#	293377
#	303812
#	316440
#	329305
#
# Disc length: 4525 seconds
#
# Revision: 2
# Processed by: cddbd v1.4PL0 Copyright (c) Steve Scherf et al.
# Submitted via: EZCDDA 4.3.2
#
DISCID=5b11ab19
DTITLE=CharlieFeathers - Good rockin`Tonight
DYEAR=1900
DGENRE=
TTITLE0=Good Rockin` Tonight
TTITLE1=Corinna,Corinna
TTITLE2=Call Dog
TTITLE3=She`s Gone
TTITLE4=Break Song
TTITLE5=Baby Let`s Play House
TTITLE6=Mound Of Clay
TTITLE7=Blues Stay Away From Me
TTITLE8=Matchbox
TTITLE9=Two To Choose
TTITLE10=Rain
TTITLE11=Rockin`With Red
TTITLE12=Kansas City
TTITLE13=Honky Tonk Man
TTITLE14=Shake Rattle And Roll
TTITLE15=Rock`n`Roll Ruby
TTITLE16=It`s All Over Now
TTITLE17=Tongue-Tied Jill
TTITLE18=Roll Over Beethoven
TTITLE19=Blueberry Hill
TTITLE20=I Got A Woman
TTITLE21=Wild Side Of Life
TTITLE22=Hello Josephine
TTITLE23=Send Me The Pillow You Dream On
TTITLE24=Blue Moon Of Kentucky
EXTD=
EXTT0=
EXTT1=
EXTT2=
EXTT3=
EXTT4=
EXTT5=
EXTT6=
EXTT7=
EXTT8=
EXTT9=
EXTT10=
EXTT11=
EXTT12=
EXTT13=
EXTT14=
EXTT15=
EXTT16=
EXTT17=
EXTT18=
EXTT19=
EXTT20=
EXTT21=
EXTT22=
EXTT23=
EXTT24=
PLAYORDER=
